<svg height="60" viewBox="0 0 60 60" width="60" xmlns="http://www.w3.org/2000/svg"><path d="m0 0h60v60h-60z" fill="none"/><g fill="#102954"><path d="m48.449 19.038c1.528-3.68 1.528-11.18-.486-16.944a1.14 1.14 0 0 0 -2.153.417v.417c-.347 5.486-2.361 8.472-5.347 9.93a1.929 1.929 0 0 1 -1.736-.139 22.859 22.859 0 0 0 -24.443 0 1.71 1.71 0 0 1 -1.528.139c-3.055-1.111-5.139-4.444-5.486-10v-.416a1.142 1.142 0 0 0 -2.153-.417c-2.017 5.833-1.943 13.333-.485 17.013a8.231 8.231 0 0 1 .139 5.762 21.479 21.479 0 0 0 -1.181 7.64 23.481 23.481 0 0 0 22.638 22.569 22.943 22.943 0 0 0 22.013-30.209 8.235 8.235 0 0 1 .208-5.762zm-22.221 30.485a17.432 17.432 0 1 1 17.708-17.777 17.486 17.486 0 0 1 -17.708 17.777z" transform="translate(3.739 2.13)"/><path d="m36.087 39.668-4.1-6.319a2.227 2.227 0 0 0 -3.055-.694 2.279 2.279 0 0 0 -1.042 1.875 2.341 2.341 0 0 0 .347 1.18l2.778 4.305a.942.942 0 0 1 -.069 1.042l-4.305 4.722a2.2 2.2 0 0 0 .139 3.125 2.427 2.427 0 0 0 1.528.556 2.261 2.261 0 0 0 1.6-.694l3.194-3.75a.553.553 0 0 1 .9.069l2.298 3.263a1.363 1.363 0 0 0 .625.625 2.2 2.2 0 0 0 2.5.069 2.279 2.279 0 0 0 1.042-1.875 2.341 2.341 0 0 0 -.347-1.18z" transform="translate(-3.134 -7.319)"/></g></svg>